<svg width="111" height="36" viewBox="0 0 111 36" fill="none" xmlns="http://www.w3.org/2000/svg">
<rect width="111" height="36" fill="white"/>
<path d="M34.1675 23.126C33.4488 23.126 32.7675 23.0327 32.1235 22.846C31.4888 22.65 30.9708 22.3887 30.5695 22.062C30.3548 21.9033 30.2475 21.6793 30.2475 21.39C30.2475 21.194 30.3035 21.026 30.4155 20.886C30.5368 20.7367 30.6768 20.662 30.8355 20.662C31.0035 20.662 31.1948 20.7273 31.4095 20.858C31.8108 21.1473 32.2308 21.3573 32.6695 21.488C33.1082 21.6187 33.5935 21.684 34.1255 21.684C34.8068 21.684 35.3295 21.5673 35.6935 21.334C36.0575 21.0913 36.2395 20.7413 36.2395 20.284C36.2395 19.9293 36.0668 19.6587 35.7215 19.472C35.3855 19.276 34.8208 19.0893 34.0275 18.912C33.2062 18.7347 32.5388 18.5293 32.0255 18.296C31.5122 18.0627 31.1248 17.764 30.8635 17.4C30.6022 17.036 30.4715 16.574 30.4715 16.014C30.4715 15.4353 30.6348 14.9173 30.9615 14.46C31.2882 14.0027 31.7408 13.648 32.3195 13.396C32.9075 13.1347 33.5655 13.004 34.2935 13.004C35.6282 13.004 36.7155 13.3587 37.5555 14.068C37.6768 14.1707 37.7608 14.2733 37.8075 14.376C37.8635 14.4693 37.8915 14.5907 37.8915 14.74C37.8915 14.936 37.8308 15.1087 37.7095 15.258C37.5975 15.398 37.4622 15.468 37.3035 15.468C37.2102 15.468 37.1215 15.454 37.0375 15.426C36.9628 15.398 36.8602 15.3467 36.7295 15.272C36.3468 14.992 35.9735 14.7867 35.6095 14.656C35.2548 14.516 34.8162 14.446 34.2935 14.446C33.6588 14.446 33.1548 14.5767 32.7815 14.838C32.4175 15.09 32.2355 15.4447 32.2355 15.902C32.2355 16.2847 32.3988 16.5787 32.7255 16.784C33.0522 16.9893 33.6075 17.1807 34.3915 17.358C35.2222 17.5447 35.8942 17.7547 36.4075 17.988C36.9302 18.212 37.3268 18.5013 37.5975 18.856C37.8775 19.2107 38.0175 19.654 38.0175 20.186C38.0175 20.7647 37.8542 21.278 37.5275 21.726C37.2102 22.1647 36.7575 22.51 36.1695 22.762C35.5908 23.0047 34.9235 23.126 34.1675 23.126ZM40.3932 23.084C40.1412 23.084 39.9312 23.014 39.7632 22.874C39.6046 22.7247 39.5252 22.5147 39.5252 22.244V16.84C39.5252 16.5693 39.6046 16.364 39.7632 16.224C39.9312 16.084 40.1412 16.014 40.3932 16.014C40.6452 16.014 40.8552 16.084 41.0232 16.224C41.1912 16.364 41.2752 16.5693 41.2752 16.84V22.244C41.2752 22.5147 41.1912 22.7247 41.0232 22.874C40.8552 23.014 40.6452 23.084 40.3932 23.084ZM40.3932 14.768C40.0759 14.768 39.8239 14.684 39.6372 14.516C39.4506 14.3387 39.3572 14.11 39.3572 13.83C39.3572 13.55 39.4506 13.326 39.6372 13.158C39.8239 12.99 40.0759 12.906 40.3932 12.906C40.7012 12.906 40.9486 12.99 41.1352 13.158C41.3312 13.326 41.4292 13.55 41.4292 13.83C41.4292 14.11 41.3359 14.3387 41.1492 14.516C40.9626 14.684 40.7106 14.768 40.3932 14.768ZM48.8759 16.014C49.1373 16.014 49.3473 16.0887 49.5059 16.238C49.6646 16.3873 49.7439 16.588 49.7439 16.84V22.37C49.7439 23.4433 49.4453 24.2553 48.8479 24.806C48.2506 25.3567 47.3686 25.632 46.2019 25.632C45.1846 25.632 44.3353 25.4407 43.6539 25.058C43.3086 24.8527 43.1359 24.6053 43.1359 24.316C43.1359 24.1107 43.1826 23.9473 43.2759 23.826C43.3786 23.7047 43.5093 23.644 43.6679 23.644C43.7519 23.644 43.8546 23.6627 43.9759 23.7C44.0973 23.7467 44.2233 23.798 44.3539 23.854C44.6899 23.994 44.9886 24.1013 45.2499 24.176C45.5206 24.2507 45.8286 24.288 46.1739 24.288C47.3966 24.288 48.0079 23.6907 48.0079 22.496V21.6C47.8026 21.9827 47.5039 22.2813 47.1119 22.496C46.7199 22.7013 46.2719 22.804 45.7679 22.804C45.1706 22.804 44.6386 22.664 44.1719 22.384C43.7146 22.0947 43.3553 21.6933 43.0939 21.18C42.8326 20.6667 42.7019 20.074 42.7019 19.402C42.7019 18.73 42.8279 18.1373 43.0799 17.624C43.3413 17.1013 43.7053 16.7 44.1719 16.42C44.6386 16.1307 45.1706 15.986 45.7679 15.986C46.2719 15.986 46.7199 16.0933 47.1119 16.308C47.5039 16.5133 47.8026 16.8073 48.0079 17.19V16.826C48.0079 16.5833 48.0873 16.3873 48.2459 16.238C48.4046 16.0887 48.6146 16.014 48.8759 16.014ZM46.2299 21.446C46.7899 21.446 47.2239 21.264 47.5319 20.9C47.8493 20.536 48.0079 20.0367 48.0079 19.402C48.0079 18.758 47.8493 18.254 47.5319 17.89C47.2239 17.526 46.7899 17.344 46.2299 17.344C45.6793 17.344 45.2453 17.526 44.9279 17.89C44.6106 18.254 44.4519 18.758 44.4519 19.402C44.4519 20.0367 44.6106 20.536 44.9279 20.9C45.2453 21.264 45.6793 21.446 46.2299 21.446ZM55.5325 15.986C56.3538 15.986 56.9652 16.2193 57.3665 16.686C57.7678 17.1527 57.9685 17.8573 57.9685 18.8V22.244C57.9685 22.5053 57.8892 22.7107 57.7305 22.86C57.5812 23.0093 57.3712 23.084 57.1005 23.084C56.8298 23.084 56.6152 23.0093 56.4565 22.86C56.2978 22.7107 56.2185 22.5053 56.2185 22.244V18.898C56.2185 18.366 56.1158 17.9787 55.9105 17.736C55.7145 17.4933 55.4018 17.372 54.9725 17.372C54.4685 17.372 54.0625 17.5307 53.7545 17.848C53.4558 18.1653 53.3065 18.59 53.3065 19.122V22.244C53.3065 22.5053 53.2272 22.7107 53.0685 22.86C52.9098 23.0093 52.6952 23.084 52.4245 23.084C52.1538 23.084 51.9392 23.0093 51.7805 22.86C51.6312 22.7107 51.5565 22.5053 51.5565 22.244V16.826C51.5565 16.5833 51.6358 16.3873 51.7945 16.238C51.9532 16.0887 52.1678 16.014 52.4385 16.014C52.6812 16.014 52.8772 16.0887 53.0265 16.238C53.1852 16.378 53.2645 16.5647 53.2645 16.798V17.176C53.4978 16.7933 53.8105 16.4993 54.2025 16.294C54.5945 16.0887 55.0378 15.986 55.5325 15.986ZM67.7747 23.126C66.4214 23.126 65.3947 22.776 64.6947 22.076C63.9947 21.376 63.6447 20.354 63.6447 19.01V13.956C63.6447 13.6853 63.7241 13.4707 63.8827 13.312C64.0414 13.144 64.2561 13.06 64.5267 13.06C64.7974 13.06 65.0121 13.144 65.1707 13.312C65.3294 13.4707 65.4087 13.6853 65.4087 13.956V19.108C65.4087 19.9573 65.6094 20.6013 66.0107 21.04C66.4121 21.4693 67.0001 21.684 67.7747 21.684C68.5401 21.684 69.1234 21.4647 69.5247 21.026C69.9261 20.5873 70.1267 19.948 70.1267 19.108V13.956C70.1267 13.6853 70.2061 13.4707 70.3647 13.312C70.5234 13.144 70.7381 13.06 71.0087 13.06C71.2794 13.06 71.4941 13.144 71.6527 13.312C71.8114 13.4707 71.8907 13.6853 71.8907 13.956V19.01C71.8907 20.3447 71.5407 21.3667 70.8407 22.076C70.1407 22.776 69.1187 23.126 67.7747 23.126ZM77.7483 15.986C78.3363 15.986 78.859 16.1353 79.3163 16.434C79.783 16.7327 80.1423 17.1573 80.3943 17.708C80.6556 18.2493 80.7863 18.8747 80.7863 19.584C80.7863 20.2933 80.6556 20.914 80.3943 21.446C80.1423 21.978 79.7876 22.3887 79.3303 22.678C78.873 22.9673 78.3456 23.112 77.7483 23.112C77.263 23.112 76.829 23.0093 76.4463 22.804C76.0636 22.5987 75.7696 22.314 75.5643 21.95V24.806C75.5643 25.0487 75.485 25.24 75.3263 25.38C75.1676 25.52 74.9576 25.59 74.6963 25.59C74.435 25.59 74.2203 25.5153 74.0523 25.366C73.8936 25.2167 73.8143 25.0207 73.8143 24.778V16.84C73.8143 16.588 73.889 16.3873 74.0383 16.238C74.197 16.0887 74.407 16.014 74.6683 16.014C74.9296 16.014 75.1396 16.0887 75.2983 16.238C75.457 16.3873 75.5363 16.588 75.5363 16.84V17.19C75.7416 16.8073 76.0356 16.5133 76.4183 16.308C76.8103 16.0933 77.2536 15.986 77.7483 15.986ZM77.2863 21.754C77.837 21.754 78.2663 21.5673 78.5743 21.194C78.8823 20.8113 79.0363 20.2747 79.0363 19.584C79.0363 18.8747 78.8823 18.324 78.5743 17.932C78.2663 17.54 77.837 17.344 77.2863 17.344C76.7263 17.344 76.2923 17.5353 75.9843 17.918C75.6856 18.3007 75.5363 18.8467 75.5363 19.556C75.5363 20.256 75.6856 20.7973 75.9843 21.18C76.2923 21.5627 76.7263 21.754 77.2863 21.754Z" fill="#156963"/>
</svg>
